<svg xmlns="http://www.w3.org/2000/svg" viewBox="0 0 512 512" width="512" height="512"><defs>
<radialGradient id="dough" cx="45%" cy="40%" r="70%"><stop offset="0" stop-color="#f8e6bf"/><stop offset="1" stop-color="#e6c48a"/></radialGradient>
<radialGradient id="crustBaked" cx="45%" cy="40%" r="70%"><stop offset="0" stop-color="#eab36a"/><stop offset="1" stop-color="#c47a35"/></radialGradient>
<radialGradient id="sauce" cx="40%" cy="35%" r="75%"><stop offset="0" stop-color="#e8502f"/><stop offset="1" stop-color="#b52a18"/></radialGradient>
<radialGradient id="sauceBaked" cx="40%" cy="35%" r="75%"><stop offset="0" stop-color="#d4462a"/><stop offset="1" stop-color="#9c2414"/></radialGradient>
<radialGradient id="cheese" cx="40%" cy="35%" r="70%"><stop offset="0" stop-color="#fffdf6"/><stop offset="1" stop-color="#efe3c6"/></radialGradient>
<radialGradient id="cheeseBaked" cx="40%" cy="35%" r="70%"><stop offset="0" stop-color="#fff3cf"/><stop offset="1" stop-color="#f1c76d"/></radialGradient>
<radialGradient id="bowl" cx="45%" cy="35%" r="75%"><stop offset="0" stop-color="#ffffff"/><stop offset="1" stop-color="#dcd6cc"/></radialGradient>
<linearGradient id="pasta" x1="0" y1="0" x2="0" y2="1"><stop offset="0" stop-color="#f7dc8a"/><stop offset="1" stop-color="#e2b955"/></linearGradient>
<linearGradient id="wood" x1="0" y1="0" x2="1" y2="1"><stop offset="0" stop-color="#d9a066"/><stop offset="1" stop-color="#b47740"/></linearGradient>
</defs><rect x="275" y="251" width="7" height="3" rx="1.5" fill="#fbf3d5" stroke="#d8c48a" stroke-width="1" transform="rotate(22 275 251)"/><rect x="269" y="258" width="6" height="3" rx="1.5" fill="#fbf3d5" stroke="#d8c48a" stroke-width="1" transform="rotate(31 269 258)"/><rect x="295" y="279" width="8" height="3" rx="1.5" fill="#fbf3d5" stroke="#d8c48a" stroke-width="1" transform="rotate(-44 295 279)"/><rect x="214" y="245" width="7" height="3" rx="1.5" fill="#fbf3d5" stroke="#d8c48a" stroke-width="1" transform="rotate(60 214 245)"/><rect x="263" y="252" width="10" height="3" rx="1.5" fill="#fbf3d5" stroke="#d8c48a" stroke-width="1" transform="rotate(-12 263 252)"/><rect x="267" y="269" width="7" height="3" rx="1.5" fill="#fbf3d5" stroke="#d8c48a" stroke-width="1" transform="rotate(55 267 269)"/><rect x="263" y="265" width="8" height="3" rx="1.5" fill="#fbf3d5" stroke="#d8c48a" stroke-width="1" transform="rotate(6 263 265)"/><rect x="329" y="238" width="7" height="3" rx="1.5" fill="#fbf3d5" stroke="#d8c48a" stroke-width="1" transform="rotate(-36 329 238)"/><rect x="318" y="193" width="5" height="3" rx="1.5" fill="#fbf3d5" stroke="#d8c48a" stroke-width="1" transform="rotate(28 318 193)"/><rect x="295" y="227" width="6" height="3" rx="1.5" fill="#fbf3d5" stroke="#d8c48a" stroke-width="1" transform="rotate(36 295 227)"/><rect x="253" y="236" width="8" height="3" rx="1.5" fill="#fbf3d5" stroke="#d8c48a" stroke-width="1" transform="rotate(-34 253 236)"/><rect x="291" y="255" width="7" height="3" rx="1.5" fill="#fbf3d5" stroke="#d8c48a" stroke-width="1" transform="rotate(-12 291 255)"/><rect x="210" y="217" width="10" height="3" rx="1.5" fill="#fbf3d5" stroke="#d8c48a" stroke-width="1" transform="rotate(57 210 217)"/><rect x="327" y="248" width="7" height="3" rx="1.5" fill="#fbf3d5" stroke="#d8c48a" stroke-width="1" transform="rotate(-39 327 248)"/><rect x="220" y="231" width="8" height="3" rx="1.5" fill="#fbf3d5" stroke="#d8c48a" stroke-width="1" transform="rotate(-49 220 231)"/><rect x="288" y="296" width="8" height="3" rx="1.5" fill="#fbf3d5" stroke="#d8c48a" stroke-width="1" transform="rotate(23 288 296)"/><rect x="289" y="263" width="10" height="3" rx="1.5" fill="#fbf3d5" stroke="#d8c48a" stroke-width="1" transform="rotate(18 289 263)"/><rect x="282" y="249" width="7" height="3" rx="1.5" fill="#fbf3d5" stroke="#d8c48a" stroke-width="1" transform="rotate(36 282 249)"/><rect x="190" y="263" width="8" height="3" rx="1.5" fill="#fbf3d5" stroke="#d8c48a" stroke-width="1" transform="rotate(-46 190 263)"/><rect x="349" y="287" width="6" height="3" rx="1.5" fill="#fbf3d5" stroke="#d8c48a" stroke-width="1" transform="rotate(-37 349 287)"/><rect x="224" y="280" width="9" height="3" rx="1.5" fill="#fbf3d5" stroke="#d8c48a" stroke-width="1" transform="rotate(-3 224 280)"/><rect x="186" y="250" width="6" height="3" rx="1.5" fill="#fbf3d5" stroke="#d8c48a" stroke-width="1" transform="rotate(-15 186 250)"/><rect x="213" y="230" width="5" height="3" rx="1.5" fill="#fbf3d5" stroke="#d8c48a" stroke-width="1" transform="rotate(-47 213 230)"/><rect x="298" y="277" width="8" height="3" rx="1.5" fill="#fbf3d5" stroke="#d8c48a" stroke-width="1" transform="rotate(57 298 277)"/><rect x="259" y="233" width="9" height="3" rx="1.5" fill="#fbf3d5" stroke="#d8c48a" stroke-width="1" transform="rotate(58 259 233)"/><rect x="253" y="253" width="7" height="3" rx="1.5" fill="#fbf3d5" stroke="#d8c48a" stroke-width="1" transform="rotate(-26 253 253)"/><rect x="261" y="256" width="6" height="3" rx="1.5" fill="#fbf3d5" stroke="#d8c48a" stroke-width="1" transform="rotate(44 261 256)"/><rect x="308" y="259" width="6" height="3" rx="1.5" fill="#fbf3d5" stroke="#d8c48a" stroke-width="1" transform="rotate(-37 308 259)"/><rect x="270" y="233" width="6" height="3" rx="1.5" fill="#fbf3d5" stroke="#d8c48a" stroke-width="1" transform="rotate(-5 270 233)"/><rect x="239" y="225" width="9" height="3" rx="1.5" fill="#fbf3d5" stroke="#d8c48a" stroke-width="1" transform="rotate(-12 239 225)"/><rect x="193" y="245" width="7" height="3" rx="1.5" fill="#fbf3d5" stroke="#d8c48a" stroke-width="1" transform="rotate(26 193 245)"/><rect x="235" y="252" width="6" height="3" rx="1.5" fill="#fbf3d5" stroke="#d8c48a" stroke-width="1" transform="rotate(34 235 252)"/><rect x="253" y="197" width="8" height="3" rx="1.5" fill="#fbf3d5" stroke="#d8c48a" stroke-width="1" transform="rotate(10 253 197)"/><rect x="295" y="287" width="6" height="3" rx="1.5" fill="#fbf3d5" stroke="#d8c48a" stroke-width="1" transform="rotate(-9 295 287)"/><rect x="281" y="267" width="7" height="3" rx="1.5" fill="#fbf3d5" stroke="#d8c48a" stroke-width="1" transform="rotate(-9 281 267)"/><rect x="244" y="223" width="6" height="3" rx="1.5" fill="#fbf3d5" stroke="#d8c48a" stroke-width="1" transform="rotate(33 244 223)"/><rect x="249" y="209" width="5" height="3" rx="1.5" fill="#fbf3d5" stroke="#d8c48a" stroke-width="1" transform="rotate(14 249 209)"/><rect x="281" y="240" width="6" height="3" rx="1.5" fill="#fbf3d5" stroke="#d8c48a" stroke-width="1" transform="rotate(38 281 240)"/><rect x="229" y="267" width="9" height="3" rx="1.5" fill="#fbf3d5" stroke="#d8c48a" stroke-width="1" transform="rotate(-14 229 267)"/><rect x="265" y="264" width="7" height="3" rx="1.5" fill="#fbf3d5" stroke="#d8c48a" stroke-width="1" transform="rotate(24 265 264)"/><rect x="210" y="278" width="5" height="3" rx="1.5" fill="#fbf3d5" stroke="#d8c48a" stroke-width="1" transform="rotate(-30 210 278)"/><rect x="224" y="232" width="7" height="3" rx="1.5" fill="#fbf3d5" stroke="#d8c48a" stroke-width="1" transform="rotate(52 224 232)"/><rect x="252" y="264" width="5" height="3" rx="1.5" fill="#fbf3d5" stroke="#d8c48a" stroke-width="1" transform="rotate(-2 252 264)"/><rect x="243" y="274" width="5" height="3" rx="1.5" fill="#fbf3d5" stroke="#d8c48a" stroke-width="1" transform="rotate(-60 243 274)"/><rect x="207" y="275" width="7" height="3" rx="1.5" fill="#fbf3d5" stroke="#d8c48a" stroke-width="1" transform="rotate(50 207 275)"/><rect x="220" y="239" width="9" height="3" rx="1.5" fill="#fbf3d5" stroke="#d8c48a" stroke-width="1" transform="rotate(-32 220 239)"/><rect x="195" y="224" width="8" height="3" rx="1.5" fill="#fbf3d5" stroke="#d8c48a" stroke-width="1" transform="rotate(-22 195 224)"/><rect x="299" y="266" width="6" height="3" rx="1.5" fill="#fbf3d5" stroke="#d8c48a" stroke-width="1" transform="rotate(-15 299 266)"/><rect x="164" y="236" width="8" height="3" rx="1.5" fill="#fbf3d5" stroke="#d8c48a" stroke-width="1" transform="rotate(2 164 236)"/><rect x="278" y="235" width="7" height="3" rx="1.5" fill="#fbf3d5" stroke="#d8c48a" stroke-width="1" transform="rotate(21 278 235)"/><rect x="229" y="245" width="7" height="3" rx="1.5" fill="#fbf3d5" stroke="#d8c48a" stroke-width="1" transform="rotate(39 229 245)"/><rect x="259" y="284" width="5" height="3" rx="1.5" fill="#fbf3d5" stroke="#d8c48a" stroke-width="1" transform="rotate(55 259 284)"/><rect x="242" y="232" width="10" height="3" rx="1.5" fill="#fbf3d5" stroke="#d8c48a" stroke-width="1" transform="rotate(36 242 232)"/><rect x="284" y="256" width="7" height="3" rx="1.5" fill="#fbf3d5" stroke="#d8c48a" stroke-width="1" transform="rotate(60 284 256)"/><rect x="264" y="255" width="7" height="3" rx="1.5" fill="#fbf3d5" stroke="#d8c48a" stroke-width="1" transform="rotate(-55 264 255)"/><rect x="214" y="265" width="7" height="3" rx="1.5" fill="#fbf3d5" stroke="#d8c48a" stroke-width="1" transform="rotate(-43 214 265)"/><rect x="327" y="256" width="7" height="3" rx="1.5" fill="#fbf3d5" stroke="#d8c48a" stroke-width="1" transform="rotate(-2 327 256)"/><rect x="196" y="255" width="10" height="3" rx="1.5" fill="#fbf3d5" stroke="#d8c48a" stroke-width="1" transform="rotate(39 196 255)"/><rect x="251" y="230" width="6" height="3" rx="1.5" fill="#fbf3d5" stroke="#d8c48a" stroke-width="1" transform="rotate(-49 251 230)"/><rect x="265" y="244" width="8" height="3" rx="1.5" fill="#fbf3d5" stroke="#d8c48a" stroke-width="1" transform="rotate(49 265 244)"/><rect x="239" y="270" width="7" height="3" rx="1.5" fill="#fbf3d5" stroke="#d8c48a" stroke-width="1" transform="rotate(53 239 270)"/><rect x="225" y="212" width="5" height="3" rx="1.5" fill="#fbf3d5" stroke="#d8c48a" stroke-width="1" transform="rotate(28 225 212)"/><rect x="217" y="257" width="9" height="3" rx="1.5" fill="#fbf3d5" stroke="#d8c48a" stroke-width="1" transform="rotate(28 217 257)"/><rect x="311" y="231" width="10" height="3" rx="1.5" fill="#fbf3d5" stroke="#d8c48a" stroke-width="1" transform="rotate(-9 311 231)"/><rect x="190" y="237" width="7" height="3" rx="1.5" fill="#fbf3d5" stroke="#d8c48a" stroke-width="1" transform="rotate(-44 190 237)"/><rect x="186" y="227" width="9" height="3" rx="1.5" fill="#fbf3d5" stroke="#d8c48a" stroke-width="1" transform="rotate(-45 186 227)"/><rect x="235" y="261" width="7" height="3" rx="1.5" fill="#fbf3d5" stroke="#d8c48a" stroke-width="1" transform="rotate(55 235 261)"/><rect x="226" y="259" width="6" height="3" rx="1.5" fill="#fbf3d5" stroke="#d8c48a" stroke-width="1" transform="rotate(-7 226 259)"/><rect x="238" y="232" width="6" height="3" rx="1.5" fill="#fbf3d5" stroke="#d8c48a" stroke-width="1" transform="rotate(-33 238 232)"/><rect x="251" y="298" width="6" height="3" rx="1.5" fill="#fbf3d5" stroke="#d8c48a" stroke-width="1" transform="rotate(30 251 298)"/></svg>
