<svg xmlns="http://www.w3.org/2000/svg" viewBox="0 0 512 512" width="512" height="512"><defs>
<radialGradient id="dough" cx="45%" cy="40%" r="70%"><stop offset="0" stop-color="#f8e6bf"/><stop offset="1" stop-color="#e6c48a"/></radialGradient>
<radialGradient id="crustBaked" cx="45%" cy="40%" r="70%"><stop offset="0" stop-color="#eab36a"/><stop offset="1" stop-color="#c47a35"/></radialGradient>
<radialGradient id="sauce" cx="40%" cy="35%" r="75%"><stop offset="0" stop-color="#e8502f"/><stop offset="1" stop-color="#b52a18"/></radialGradient>
<radialGradient id="sauceBaked" cx="40%" cy="35%" r="75%"><stop offset="0" stop-color="#d4462a"/><stop offset="1" stop-color="#9c2414"/></radialGradient>
<radialGradient id="cheese" cx="40%" cy="35%" r="70%"><stop offset="0" stop-color="#fffdf6"/><stop offset="1" stop-color="#efe3c6"/></radialGradient>
<radialGradient id="cheeseBaked" cx="40%" cy="35%" r="70%"><stop offset="0" stop-color="#fff3cf"/><stop offset="1" stop-color="#f1c76d"/></radialGradient>
<radialGradient id="bowl" cx="45%" cy="35%" r="75%"><stop offset="0" stop-color="#ffffff"/><stop offset="1" stop-color="#dcd6cc"/></radialGradient>
<linearGradient id="pasta" x1="0" y1="0" x2="0" y2="1"><stop offset="0" stop-color="#f7dc8a"/><stop offset="1" stop-color="#e2b955"/></linearGradient>
<linearGradient id="wood" x1="0" y1="0" x2="1" y2="1"><stop offset="0" stop-color="#d9a066"/><stop offset="1" stop-color="#b47740"/></linearGradient>
</defs><ellipse cx="256" cy="360" rx="160" ry="36" fill="#000" opacity=".15"/><path d="M 100 350 C 90 250, 190 210, 256 214 C 330 210, 430 250, 412 350 C 390 380, 120 380, 100 350 Z" fill="url(#dough)" stroke="#4A2A14" stroke-width="6"/><path d="M 150 300 C 200 280, 300 280, 360 300" stroke="#d9b277" stroke-width="8" fill="none" stroke-linecap="round"/><g transform="rotate(-12 256 200)"><path d="M 170 250 L 170 150 C 170 120, 200 120, 204 150 L 206 120 C 206 92, 240 92, 242 120 L 244 112 C 246 86, 280 86, 280 114 L 282 126 C 284 100, 316 102, 316 130 L 316 250 Z" fill="#f2c9a0" stroke="#4A2A14" stroke-width="6" stroke-linejoin="round"/></g></svg>
